<svg xmlns="http://www.w3.org/2000/svg" version="1.1" xmlns:xlink="http://www.w3.org/1999/xlink" xmlns:svgjs="http://svgjs.dev/svgjs" width="1080" height="2400" preserveAspectRatio="none" viewBox="0 0 1080 2400"><g mask="url(&quot;#SvgjsMask1312&quot;)" fill="none"><rect width="1080" height="2400" x="0" y="0" fill="url(&quot;#SvgjsLinearGradient1313&quot;)"></rect><path d="M1080 0L653.19 0L1080 651.95z" fill="rgba(255, 255, 255, .1)"></path><path d="M653.19 0L1080 651.95L1080 1540.73L413.68000000000006 0z" fill="rgba(255, 255, 255, .075)"></path><path d="M413.68000000000006 0L1080 1540.73L1080 1696.65L402.7200000000001 0z" fill="rgba(255, 255, 255, .05)"></path><path d="M402.72 0L1080 1696.65L1080 1721.46L178.13000000000002 0z" fill="rgba(255, 255, 255, .025)"></path><path d="M0 2400L138.45 2400L0 2141.11z" fill="rgba(0, 0, 0, .1)"></path><path d="M0 2141.11L138.45 2400L462.39 2400L0 1539.8400000000001z" fill="rgba(0, 0, 0, .075)"></path><path d="M0 1539.8400000000001L462.39 2400L584.87 2400L0 1352.5000000000002z" fill="rgba(0, 0, 0, .05)"></path><path d="M0 1352.5L584.87 2400L922.27 2400L0 387.46000000000004z" fill="rgba(0, 0, 0, .025)"></path></g><defs><mask id="SvgjsMask1312"><rect width="1080" height="2400" fill="#ffffff"></rect></mask><linearGradient x1="-30.56%" y1="13.75%" x2="130.56%" y2="86.25%" gradientUnits="userSpaceOnUse" id="SvgjsLinearGradient1313"><stop stop-color="rgba(255, 134, 179, 1)" offset="0.22"></stop><stop stop-color="rgba(92, 255, 115, 1)" offset="1"></stop></linearGradient></defs></svg>